<!DOCTYPE svg PUBLIC "-//W3C//DTD SVG 1.1//EN" "http://www.w3.org/Graphics/SVG/1.1/DTD/svg11.dtd">
<!-- Uploaded to: SVG Repo, www.svgrepo.com, Transformed by: SVG Repo Mixer Tools -->
<svg fill="#000000" height="800px" width="800px" version="1.1" id="Capa_1" xmlns="http://www.w3.org/2000/svg" xmlns:xlink="http://www.w3.org/1999/xlink" viewBox="0 0 612 612" xml:space="preserve">
<g id="SVGRepo_bgCarrier" stroke-width="0"/>
<g id="SVGRepo_tracerCarrier" stroke-linecap="round" stroke-linejoin="round"/>
<g id="SVGRepo_iconCarrier"> <g> <g> <circle cx="104.211" cy="300.391" r="7.973"/> <circle cx="315.341" cy="193.911" r="12.756"/> <circle cx="386.564" cy="193.911" r="12.756"/> <path d="M527.072,383.701L413.544,270.174c15.668-15.767,25.438-37.394,25.737-61.267c11.56-2.658,20.009-12.905,20.009-25.267 c0-12.369-8.448-22.622-20.009-25.28c-0.117-7.258-1.071-14.325-2.843-21.094c8.739-3.893,17.206-8.412,25.33-13.551l5.823-3.683 l-43.402-41.161c-2.874-31.82-29.294-56.828-61.37-56.828h-22.181c-33.463,0-60.799,26.922-61.925,60.44l-39.067,37.549 l5.823,3.683c6.631,4.195,13.499,7.956,20.547,11.321c-2.213,7.575-3.394,15.405-3.526,23.357 c-11.483,2.723-19.876,12.966-19.876,25.248c0,12.273,8.392,22.51,19.874,25.233c0.29,24.065,10.209,45.851,26.09,61.654 c-3.887,3.386-94.97,95.043-94.97,95.043V265.046h13.5v-10.8h-13.5v-55.351h13.5v-10.8h-13.5v-55.351h13.5v-10.8h-13.5V66.594 h13.5v-10.8h-13.5v-12.15h-0.162C191.524,19.258,171.223,0,146.354,0c-26.131,0-47.251,21.259-47.251,47.39v202.955 c-14.85,15.753-23.731,36.343-24.076,58.215c-0.339,21.46,7.119,41.93,21.153,57.995c-10.738,13.557-17.9,28.871-20.202,43.449 l-1.021,6.242h58.417l-1.076-6.307c-2.859-16.77-10.445-31.901-22.004-43.962c14.06-15.78,22.046-35.646,22.317-56.508 c0.285-21.873-7.857-42.54-22.707-58.525V47.39c0-20.176,16.274-36.59,36.451-36.59s36.451,16.414,36.451,36.59v7.888 c-20.25,0-38.354,17.206-38.354,38.354c0,13.993,7.929,26.255,19.158,32.954c-11.229,6.699-19.158,18.961-19.158,32.954 s7.929,26.255,19.158,32.954c-11.229,6.699-19.158,18.961-19.158,32.954s7.929,26.255,19.158,32.954 c-11.229,6.699-19.158,18.961-19.158,32.954c0,21.149,18.104,38.354,38.354,38.354v46.638l-7.368,7.354 c-6.44,6.44-9.986,15.001-9.986,24.109c0,9.109,3.546,17.67,9.985,24.109c2.223,2.223,4.705,4.092,7.368,5.599v78.632h-14.85V612 h40.501v-95.851h-14.85v-15.329c4.344,3.247,9.713,5.194,15.541,5.194c14.364,0,26.049-11.686,26.049-26.05 c0-14.364-11.686-26.05-26.049-26.05c-5.828,0-11.197,1.948-15.541,5.194v-17.727c1.945,0.34,3.931,0.524,5.947,0.524 c9.113,0,17.677-3.547,24.117-9.985l32.037-32.037v73.067h28.35v18.9h-15.259l15.259,36.48V612h133.652v-83.672l15.259-36.48 h-15.259v-18.9h28.35v-73.81l32.78,32.78c6.646,6.645,15.377,9.967,24.11,9.967s17.471-3.324,24.122-9.967 C540.365,418.625,540.365,396.995,527.072,383.701z M439.308,169.695c5.43,2.299,9.18,7.649,9.18,13.944 c0,6.164-3.803,11.551-9.18,13.893V169.695z M262.456,197.51c-5.354-2.338-9.045-7.655-9.045-13.87 c0-6.222,3.691-11.544,9.045-13.884V197.51z M120.3,405.447H87.925c2.719-10.402,8.114-21.072,15.628-30.874 C111.586,383.322,117.288,393.841,120.3,405.447z M102.967,357.962c-23.535-28.315-23.141-68.616,0.732-96.966l0.24-0.27 l0.24,0.27C128.092,289.345,127.608,329.59,102.967,357.962z M209.148,464.714c8.409,0,15.248,6.841,15.248,15.25 s-6.841,15.25-15.248,15.25s-15.25-6.841-15.25-15.25C193.898,471.555,200.738,464.714,209.148,464.714z M340.637,32.842h22.181 c27.659,0,50.213,22.616,50.813,50.643c-3.556,1.423-7.148,2.705-10.772,3.866V66.592h-10.8v23.817 c-12.507,3.06-25.356,4.606-38.442,4.606c-22.215,0-43.751-4.45-64.08-13.221C290.995,54.553,313.355,32.842,340.637,32.842z M257.157,118.178l27.706-26.63c21.801,9.47,44.912,14.268,68.754,14.268s46.952-4.799,68.754-14.268l27.706,26.63 c-29,16.875-62.195,25.761-96.46,25.761S286.157,135.053,257.157,118.178z M273.256,207.791v-47.912 c0-6.939,0.923-13.777,2.723-20.403c24.353,10.033,50.685,15.263,77.637,15.263c25.158,0,49.767-4.57,72.739-13.334 c1.428,5.924,2.153,12.114,2.153,18.475v47.912c0,42.848-34.822,77.707-77.626,77.707S273.256,250.639,273.256,207.791z M155.251,93.632c0-15.193,12.704-27.554,27.554-27.554v55.108C167.954,121.186,155.251,108.825,155.251,93.632z M155.251,159.54 c0-15.193,12.704-27.554,27.554-27.554v55.108C167.954,187.094,155.251,174.733,155.251,159.54z M155.251,225.448 c0-15.193,12.704-27.554,27.554-27.554v55.108C167.954,253.002,155.251,240.641,155.251,225.448z M155.251,291.356 c0-15.193,12.704-27.554,27.554-27.554v55.108C167.954,318.91,155.251,306.549,155.251,291.356z M197.655,526.949V601.2h-18.9 v-74.251H197.655z M216.031,424.283c-4.4,4.4-10.252,6.822-16.478,6.822s-12.079-2.422-16.48-6.823 c-4.4-4.4-6.822-10.249-6.822-16.472c0-6.222,2.422-12.073,6.819-16.468l12.318-12.291l33.586,32.291L216.031,424.283z M255.706,347.19v37.417l-19.096,19.096l-33.576-32.283l78.077-77.914c5.347,5.782,8.359,13.456,8.359,21.584 c0,14.633-8.781,26.595-22.36,30.474c-2.105,0.597-4.284,0.999-6.477,1.192L255.706,347.19z M295.801,601.2 c2.483-11.362,12.609-19.899,24.705-19.899c12.096,0,22.223,8.537,24.705,19.899H295.801z M346.157,580.648 c-6.75-6.276-15.628-10.148-25.353-10.148c-10.024,0-19.4,4.109-25.947,10.727v-50.229h51.301V580.648z M346.157,520.199h-53.886 l-7.355-17.55h61.241V520.199z M346.157,491.848h-51.301v-18.9h51.301V491.848z M346.157,346.046h-14.85v10.8h14.85v39.151h-14.85 v10.8h14.85v55.351h-62.101h-17.55V356.809c1.2-0.239,2.39-0.525,3.563-0.859c18.065-5.16,30.201-21.58,30.201-40.861 c0-11.121-4.228-21.634-11.73-29.459c2.557-2.822,5.31-5.466,8.224-7.918c3.906,3.035,8.061,5.759,12.446,8.115 c2.888,18.921,18.22,33.459,36.946,35.674v24.545H346.157z M321.892,291.388c9.088,3.167,18.838,4.91,28.992,4.91 c10.374,0,20.327-1.812,29.583-5.111c-4.724,11.695-16.208,19.82-29.328,19.82C338.091,311.007,326.66,302.977,321.892,291.388z M356.957,472.948h49.951v18.9h-49.951V472.948z M356.552,601.2c2.483-11.362,12.609-19.899,24.705-19.899 c12.096,0,22.223,8.537,24.705,19.899H356.552z M406.908,581.228c-6.548-6.619-15.329-10.727-25.353-10.727 c-9.646,0-19.197,3.81-24.597,9.994v-49.496h49.951V581.228z M409.493,520.199h-52.536v-17.55h59.891L409.493,520.199z M435.258,462.148h-17.55h-60.751v-55.351h14.85v-10.8h-14.85v-39.151h14.85v-10.8h-14.85v-24.643 c18.443-2.558,33.425-17.093,36.159-35.873c4.166-2.277,8.118-4.895,11.846-7.79c2.966,2.492,5.762,5.188,8.361,8.068 c-7.402,7.84-11.559,18.244-11.559,29.281c0,20.252,14.091,37.347,33.494,41.587L435.258,462.148L435.258,462.148z M446.058,383.864v-36.656l-4.848-0.5c-16.331-1.681-28.646-15.273-28.646-31.619c0-8.284,3.131-16.077,8.69-21.932l79.551,79.551 l-33.598,32.303L446.058,383.864z M519.437,424.28c-9.092,9.084-23.88,9.084-32.961,0.001l-11.63-11.63l33.598-32.303l10.99,10.99 c4.4,4.398,6.823,10.249,6.823,16.472C526.258,414.032,523.834,419.883,519.437,424.28z"/> <path d="M278.656,388.083c0,5.913,4.953,10.614,10.866,10.614h20.181c5.913,0,10.803-4.701,10.803-10.614v-27.187h-41.851V388.083 z M289.456,371.697h20.25v16.31l-20.25,0.077V371.697z"/> <path d="M278.656,439.108c0,5.913,4.953,10.889,10.866,10.889h20.181c5.913,0,10.803-4.976,10.803-10.889v-26.911h-41.851V439.108 z M289.456,422.997h20.25v16.034l-20.25,0.077V422.997z"/> <path d="M381.257,388.083c0,5.913,5.405,10.614,11.319,10.614h20.181c5.913,0,10.351-4.701,10.351-10.614v-27.187h-41.851V388.083 z M392.058,371.697h20.25v16.31l-20.25,0.077V371.697z"/> <path d="M381.257,439.108c0,5.913,5.405,10.889,11.319,10.889h20.181c5.913,0,10.351-4.976,10.351-10.889v-26.911h-41.851V439.108 z M392.058,422.997h20.25v16.034l-20.25,0.077V422.997z"/> </g> </g> </g>
</svg>