<?xml version="1.0" encoding="iso-8859-1"?>
<!-- Uploaded to: SVG Repo, www.svgrepo.com, Generator: SVG Repo Mixer Tools -->
<svg height="800px" width="800px" version="1.1" id="Layer_1" xmlns="http://www.w3.org/2000/svg" xmlns:xlink="http://www.w3.org/1999/xlink" 
	 viewBox="0 0 504.123 504.123" xml:space="preserve">
<circle style="fill:#ED9200;" cx="252.062" cy="252.062" r="252.062"/>
<path style="fill:#EA6F00;" d="M73.83,73.823c98.43-98.43,258.032-98.43,356.462,0c98.43,98.438,98.446,258.032,0,356.478"/>
<path style="fill:#1D2321;" d="M411.538,158.673h-2.694c-8.877,0-16.108,7.215-16.108,16.108v45.757
	c-2.82-2.647-6.585-4.293-10.752-4.293h-144.4c-8.696,0-15.754,7.058-15.754,15.754v28.735h-14.982
	c4.766-5.341,7.759-12.304,7.759-20.047v-22.646c0-16.66-13.525-30.184-30.192-30.184h-30.2c-16.675,0-30.192,13.525-30.192,30.184
	v22.646c0,7.735,2.993,14.706,7.759,20.047H111.38v-85.961c0-8.893-7.215-16.108-16.108-16.108h-2.694
	c-8.893,0-16.124,7.215-16.124,16.108v193.386c0,8.909,7.231,16.124,16.124,16.124h2.694c8.893,0,16.108-7.215,16.108-16.124
	v-26.845h281.356v26.845c0,8.909,7.231,16.124,16.108,16.124h2.694c8.893,0,16.108-7.215,16.108-16.124V174.773
	C427.646,165.888,420.431,158.673,411.538,158.673z"/>
<g>
	<path style="fill:#363D3B;" d="M411.538,158.673h-2.694c-8.877,0-16.108,7.215-16.108,16.108v45.757
		c-2.82-2.647-6.585-4.293-10.752-4.293h-144.4c-5.782,0-10.791,3.159-13.533,7.814l117.256,117.256h51.428v26.845
		c0,8.909,7.231,16.124,16.108,16.124h2.694c8.893,0,16.108-7.215,16.108-16.124V174.773
		C427.646,165.888,420.431,158.673,411.538,158.673z"/>
	<path style="fill:#363D3B;" d="M188.243,188.235l25.978,25.986C212.496,200.649,201.815,189.976,188.243,188.235z"/>
	<path style="fill:#363D3B;" d="M285.987,98.627c0,16.124-5.829,25.923-19.787,32.91c-3.324,1.662-4.34,8.476-4.34,10.799
		c0,5.325-4.324,9.649-9.799,9.649c-5.325,0-9.649-4.324-9.649-9.649c0-2.15,0.339-20.787,15.124-28.262
		c6.664-3.308,9.153-6.136,9.153-15.447c0-7.987-6.491-14.478-14.627-14.478c-7.987,0-14.462,6.491-14.462,14.478
		c0,5.309-4.324,9.799-9.815,9.799c-5.325,0-9.649-4.49-9.649-9.799c0-18.629,15.305-33.926,33.926-33.926
		C270.848,64.701,285.987,79.99,285.987,98.627z M261.86,171.441c0,5.309-4.324,9.633-9.799,9.633c-5.325,0-9.649-4.324-9.649-9.633
		c0-5.49,4.324-9.815,9.649-9.815C257.536,161.627,261.86,165.943,261.86,171.441z"/>
</g>
</svg>