<?xml version="1.0" encoding="iso-8859-1"?>
<!-- Uploaded to: SVG Repo, www.svgrepo.com, Generator: SVG Repo Mixer Tools -->
<svg height="800px" width="800px" version="1.1" id="Layer_1" xmlns="http://www.w3.org/2000/svg" xmlns:xlink="http://www.w3.org/1999/xlink" 
	 viewBox="0 0 504 504" xml:space="preserve">
<circle style="fill:#FFD05B;" cx="252" cy="252" r="252"/>
<path style="fill:#324A5E;" d="M323,399.3l-7.7-51.6c-0.5-4.7-2.5-9.2-5.8-12.6l-44.4-47.4v-83c0-12-9.7-21.8-21.8-21.8
	c-12,0-21.8,9.7-21.8,21.8v84.6l-74.9,102c-6.2,10.3-2.9,23.7,7.4,29.9c3.5,2.1,7.4,3.1,11.2,3.1c7.4,0,14.6-3.8,18.7-10.5
	l61.3-83.6l27.4,29.3l6.9,44.4c1.2,11.2,10.6,19.5,21.6,19.5c0.8,0,1.5,0,2.3-0.1C315.6,422,324.3,411.2,323,399.3z"/>
<path style="fill:#54C0EB;" d="M195.6,182.8H152c-4.6,0-8.3,3.7-8.3,8.3v81.6c0,4.6,3.7,8.3,8.3,8.3h43.7c4.6,0,8.3-3.7,8.3-8.3
	v-81.6C204,186.6,200.2,182.8,195.6,182.8z"/>
<path style="fill:#334A5E;" d="M344,260.1c-3,0-6.1-0.8-8.8-2.6L289,227.8c-7.6-4.9-9.8-15-4.9-22.6s15-9.8,22.6-4.9l46.1,29.8
	c7.6,4.9,9.8,15,4.9,22.6C354.6,257.5,349.4,260.1,344,260.1z"/>
<path style="fill:#324A5E;" d="M197.8,110.5c-0.4,1.7-0.7,3.4-0.9,5.1c-3.2,28.1,19.4,51.8,47.2,50.2c16.7-0.9,31.2-11.8,38.3-26.9
	c4.7-10.2,4.9-19.7,2.8-28.4C285.2,110.5,197.8,110.5,197.8,110.5z"/>
<path style="fill:#FF7058;" d="M309.1,101.8c-0.6-3.6-3.9-6.1-7.6-6.1h-2.2c-6.5,0-12.9-1.4-18.8-3.9c-6.8-15.5-21.8-26.3-39.4-26.3
	c-23.9,0-43.2,20-43.2,44.6c0,0.1,0,0.2,0,0.4c0,0,0,0,0,0.1l0,0h86.4h1c0-0.1,0-0.1,0-0.2H302C306.3,110.3,309.8,106.3,309.1,101.8
	z"/>
</svg>